# xmcd CD database file
#
# Track frame offsets:
#	150
#	15287
#	28640
#	40290
#	52702
#	66277
#	77855
#	93447
#	105467
#	118190
#	132302
#	146697
#	162307
#	174930
#	186750
#	199842
#	214325
#	226555
#	241865
#	254972
#	269457
#	284400
#	298647
#	310550
#
# Disc length: 4302 seconds
#
# Revision: 0
# Processed by: cddbd v1.5.2PL0 Copyright (c) Steve Scherf et al.
# Submitted via: CDex 1.51
#
DISCID=5610cc18
DTITLE=various artist - Urban Blues
DYEAR=1996
DGENRE=Blues
TTITLE0=Bumble Bee Slim - Sail on, little Girl, sail on
TTITLE1=Kokomo Arnold - Policy Wheel Blues
TTITLE2=Georgia White - Trouble in Mind
TTITLE3=Harlem Hamfats - Bad lucky Man
TTITLE4=Johnnie Temple - Louise Louise Blues
TTITLE5=Peetie Wheatstraw - Working Man (Doing the Best I can)
TTITLE6=Walter Davis - Think you need a Shot
TTITLE7=Bill Gaither - New little pretty Mama
TTITLE8=Roosevelt Sykes - Night Time is the right Time
TTITLE9=Curtis Jones - Lonesome Bedroom Blues
TTITLE10=Washboard Sam - Back Door
TTITLE11=Casey Bill Weldon - 'Way Down in Louisiana
TTITLE12=Merline Johnson - Want to Woogie some more
TTITLE13=Big Bill Broonzy - What is that she got?
TTITLE14=Memphis Minnie - Lonesome Shack Blues
TTITLE15=Tampa Red - Baby, take a Chance with me
TTITLE16=Jazz Gillum - Key to the Highway
TTITLE17=Memphis Slim - Beer Drinking Woman
TTITLE18=Big Maceo - County Jail Blues
TTITLE19=St. Louis Jimmy - Goin' down slow
TTITLE20=Lonnie Johnson - He's a Jelly-Roll Baker
TTITLE21=Doctor Clayton - Ain't no Buisiness we can do
TTITLE22=Champion Jack Dupree - Big Time Mama
TTITLE23=Sonny Boy Williamson - New early in the Morning
EXTD=YEAR: 1996
EXTT0=
EXTT1=
EXTT2=
EXTT3=
EXTT4=
EXTT5=
EXTT6=
EXTT7=
EXTT8=
EXTT9=
EXTT10=
EXTT11=
EXTT12=
EXTT13=
EXTT14=
EXTT15=
EXTT16=
EXTT17=
EXTT18=
EXTT19=
EXTT20=
EXTT21=
EXTT22=
EXTT23=
PLAYORDER=
